<svg width="1466" height="220" viewBox="0 0 1466 220" fill="none" xmlns="http://www.w3.org/2000/svg">
<path d="M1394.28 85.8574C1409.25 69.3967 1432.91 59.4829 1465.27 56.116V104.937H1427.95C1416.35 104.937 1407.94 109.333 1402.7 118.124C1397.46 126.728 1394.84 138.045 1394.84 152.074V212.118H1330.31V59.2023H1388.95L1394.28 85.8574Z" fill="#9AE600"/>
<path d="M1221.76 52.749C1241.96 52.749 1260.2 56.303 1276.47 63.411C1292.75 70.5191 1305.47 80.4329 1314.63 93.1525C1323.8 105.685 1328.38 119.808 1328.38 135.52C1328.38 151.045 1323.7 165.168 1314.35 177.887C1305.18 190.42 1292.47 200.24 1276.19 207.348C1260.11 214.456 1241.96 218.01 1221.76 218.01C1202.31 218.01 1184.07 214.456 1167.05 207.348C1150.02 200.053 1136.37 190.139 1126.08 177.607C1115.98 164.887 1110.93 150.858 1110.93 135.52C1110.93 119.995 1115.98 105.966 1126.08 93.4331C1136.37 80.7135 1149.93 70.7996 1166.77 63.6916C1183.79 56.3966 1202.12 52.749 1221.76 52.749ZM1221.76 177.887C1229.24 177.887 1236.16 176.298 1242.52 173.118C1249.07 169.938 1254.31 165.168 1258.23 158.808C1262.16 152.261 1264.13 144.499 1264.13 135.52C1264.13 126.541 1262.16 118.872 1258.23 112.512C1254.31 105.966 1249.07 101.102 1242.52 97.9223C1236.16 94.7424 1229.24 93.1525 1221.76 93.1525C1214.46 93.1525 1207.26 94.8359 1200.15 98.2029C1193.23 101.383 1187.53 106.153 1183.04 112.512C1178.55 118.872 1176.31 126.541 1176.31 135.52C1176.31 144.499 1178.55 152.168 1183.04 158.528C1187.53 164.887 1193.23 169.751 1200.15 173.118C1207.26 176.298 1214.46 177.887 1221.76 177.887Z" fill="#9AE600"/>
<path d="M905.077 136.642C905.077 120.93 909.753 106.807 919.106 94.2748C928.459 81.5552 941.272 71.6414 957.545 64.5334C973.819 57.4254 991.776 53.8713 1011.42 53.8713C1030.12 53.8713 1046.58 56.7707 1060.8 62.5693C1075.2 68.1809 1086.8 76.1306 1095.59 86.4186C1104.38 96.7065 1110.18 108.584 1112.99 122.052H1048.45C1046.4 113.635 1042.09 106.901 1035.55 101.85C1029 96.8 1021.05 94.2748 1011.7 94.2748C999.539 94.2748 989.625 98.2029 981.956 106.059C974.287 113.728 970.452 123.923 970.452 136.642C970.452 148.988 974.193 159.182 981.675 167.225C989.157 175.082 998.978 179.01 1011.14 179.01C1020.68 179.01 1028.72 176.485 1035.27 171.434C1041.81 166.384 1046.12 159.743 1048.17 151.513H1112.71C1110.65 164.233 1105.04 175.736 1095.87 186.024C1086.71 196.312 1074.73 204.449 1059.96 210.435C1045.37 216.42 1029.19 219.413 1011.42 219.413C991.963 219.413 974.1 215.859 957.826 208.751C941.552 201.456 928.646 191.542 919.106 179.01C909.753 166.29 905.077 152.168 905.077 136.642Z" fill="#9AE600"/>
<path d="M906.756 141.973H757.208C758.517 153.758 762.913 163.484 770.395 171.154C778.064 178.636 788.445 182.377 801.539 182.377C812.201 182.377 821.647 179.852 829.878 174.801C838.295 169.564 842.504 161.614 842.504 150.952H906.756C906.756 172.65 897.404 189.204 878.699 200.614C860.18 212.025 834.367 217.73 801.259 217.73C780.87 217.73 762.352 214.269 745.704 207.348C729.056 200.427 715.869 190.701 706.142 178.168C696.415 165.448 691.552 150.952 691.552 134.678C691.552 118.218 696.322 103.721 705.862 91.1884C715.588 78.4688 728.776 68.7421 745.423 62.0082C762.258 55.0872 780.87 51.6267 801.259 51.6267C822.209 51.6267 840.54 54.9937 856.252 61.7276C872.152 68.4615 884.497 78.0012 893.289 90.3467C902.08 102.505 906.569 116.815 906.756 133.275V134.678H907.318H906.756V141.973ZM801.259 85.8574C788.913 85.8574 779.467 88.4762 772.92 93.7136C766.373 98.9511 761.884 106.246 759.452 115.599H840.82C838.763 106.246 834.648 98.9511 828.475 93.7136C822.302 88.4762 813.23 85.8574 801.259 85.8574Z" fill="black"/>
<path d="M625.07 4.48932H689.603V211.557H630.681L627.314 193.319C611.415 208.658 586.537 215.953 552.68 215.205C538.277 215.205 525.464 211.651 514.241 204.543C503.205 197.247 494.507 187.427 488.147 175.082C481.787 162.549 478.514 148.614 478.327 133.275V132.434V131.592C478.701 118.311 481.974 105.685 488.147 93.7136C494.32 81.7422 503.018 72.109 514.241 64.8139C525.464 57.3318 538.277 53.5907 552.68 53.5907C585.04 53.5907 609.17 60.8858 625.07 75.4759V4.48932ZM585.227 177.326C592.71 177.326 599.443 175.456 605.429 171.715C611.602 167.787 616.372 162.643 619.739 156.283C623.293 149.923 625.07 143.096 625.07 135.801V134.959C625.07 121.865 621.329 111.39 613.847 103.534C606.551 95.6777 597.012 91.7495 585.227 91.7495C571.947 91.7495 561.659 95.8647 554.364 104.095C547.256 112.138 543.608 121.772 543.421 132.995C543.608 145.901 547.256 156.563 554.364 164.981C561.472 173.211 571.76 177.326 585.227 177.326Z" fill="black"/>
<path d="M371.108 52.4684C397.857 52.4684 421.893 56.9577 443.217 65.9362C464.541 74.9147 475.203 90.7207 475.203 113.354V212.118H414.037L409.267 192.197V190.794C404.591 199.211 394.677 205.384 379.525 209.312C364.561 213.24 348.194 215.204 330.424 215.204C316.208 215.204 301.992 212.118 287.776 205.945C273.56 199.586 266.452 186.398 266.452 166.384C266.452 134.772 287.121 118.966 328.46 118.966C355.022 118.966 373.54 118.779 384.015 118.405C394.49 117.843 401.411 116.908 404.778 115.599C408.145 114.102 409.922 111.484 410.109 107.743V104.095C409.922 97.9223 405.806 93.433 397.763 90.6272C389.907 87.6343 380.928 86.1379 370.827 86.1379C360.353 86.325 351.374 88.289 343.892 92.0301C336.597 95.7712 332.949 101.476 332.949 109.145H268.135C268.135 94.9294 273.747 83.6127 284.97 75.1953C296.193 66.5909 309.568 60.6987 325.093 57.5188C340.806 54.1519 356.144 52.4684 371.108 52.4684ZM366.899 174.24C380.741 174.24 391.216 171.154 398.324 164.981C405.432 158.808 409.267 150.952 409.828 141.412V137.484C402.72 140.477 391.403 141.973 375.878 141.973C359.791 141.973 348.475 143.096 341.928 145.34C335.568 147.585 332.295 151.7 332.108 157.686C332.669 163.297 335.568 167.506 340.805 170.312C346.23 172.931 354.928 174.24 366.899 174.24Z" fill="black"/>
<path d="M193.411 85.8574C208.376 69.3967 232.038 59.4829 264.398 56.116V104.937H227.081C215.484 104.937 207.066 109.333 201.829 118.124C196.591 126.728 193.973 138.045 193.973 152.074V212.118H129.439V59.2023H188.08L193.411 85.8574Z" fill="black"/>
<path d="M95.1165 59.2023H124.297V103.253H95.1165V212.118H30.5832V103.253H0V59.2023H30.5832V26.0939L95.1165 0V59.2023Z" fill="black"/>
</svg>
